<?xml version="1.0" encoding="utf-8"?>
<!-- Generator: Adobe Illustrator 27.0.1, SVG Export Plug-In . SVG Version: 6.00 Build 0)  -->
<svg version="1.1" id="Layer_1" xmlns="http://www.w3.org/2000/svg" xmlns:xlink="http://www.w3.org/1999/xlink" x="0px" y="0px"
	 viewBox="0 0 1000 1000" style="enable-background:new 0 0 1000 1000;" xml:space="preserve">
<style type="text/css">
	.st0{fill:none;stroke:#000000;stroke-width:5;stroke-linecap:round;stroke-linejoin:round;stroke-miterlimit:10;}
	.st1{fill:#FFFFFF;}
	.st2{fill:#F5F5F5;}
	.st3{fill:none;stroke:#000000;stroke-width:4;stroke-linecap:round;stroke-linejoin:round;stroke-miterlimit:10;}
	.st4{fill:#191B1A;}
	.st5{fill:#A84582;}
	.st6{fill:none;stroke:#000000;stroke-width:6;stroke-linecap:round;stroke-linejoin:round;stroke-miterlimit:10;}
	.st7{fill:#CB3272;}
	.st8{fill:#E58800;stroke:#000000;stroke-width:4;stroke-linecap:round;stroke-linejoin:round;stroke-miterlimit:10;}
	.st9{fill:none;stroke:#5A1A3C;stroke-width:4;stroke-linecap:round;stroke-linejoin:round;stroke-miterlimit:10;}
	.st10{fill:none;stroke:#FFFAFD;stroke-width:4;stroke-linecap:round;stroke-linejoin:round;stroke-miterlimit:10;}
	.st11{fill:#FE9C00;}
	.st12{fill:#E58800;}
	.st13{fill:#601D43;}
	.st14{fill:#191B1A;stroke:#000000;stroke-width:4;stroke-linecap:round;stroke-linejoin:round;stroke-miterlimit:10;}
	.st15{fill:#BFB3C1;}
	.st16{fill:#E5E5E5;}
	.st17{opacity:0.57;fill:#E58800;enable-background:new    ;}
	.st18{fill:none;stroke:#FFFAFD;stroke-width:2;stroke-linecap:round;stroke-linejoin:round;stroke-miterlimit:10;}
	.st19{fill:#191B1A;stroke:#191B1A;stroke-miterlimit:10;}
	.st20{fill:#FFFFFF;stroke:#000000;stroke-miterlimit:10;}
	.st21{fill:#191B1A;stroke:#000000;stroke-miterlimit:10;}
	.st22{fill:#5A1A3C;stroke:#000000;stroke-width:1;stroke-miterlimit:10.0024;}
	.st23{fill:#B8FF52;stroke:#000000;stroke-width:2;stroke-linecap:round;stroke-linejoin:round;stroke-miterlimit:10;}
	
		.st24{opacity:0.29;fill:#F5F5F5;stroke:#FFFAFD;stroke-width:2;stroke-linecap:round;stroke-linejoin:round;stroke-miterlimit:10;enable-background:new    ;}
	.st25{font-family:'JosefinSans-BoldItalic';}
	.st26{font-size:80.5138px;}
</style>
<g id="Layer_1_00000013886247665116257380000014858954481241034922_">
	<path class="st0" d="M546,199.9c8.9,1.4,25.6,5.4,39.5,18.8c9.7,9.3,17,22.2,21.5,46.3c9.8,53.1-3.8,109.5-11.2,135.3"/>
	<path class="st1" d="M540.5,232.7l14.4-3.9l29.6,110.5l-14.4,3.9L540.5,232.7z"/>
	<path class="st2" d="M548,249.6l11.4-3.5l-1.7-6.3l-13.3,3.1L548,249.6z"/>
	<path class="st2" d="M574.4,341.8l-29.5-110.2l-4.4,1.2l29.6,110.5l14.4-3.9l-0.1-0.2L574.4,341.8z"/>
	<path class="st3" d="M540.5,232.7l14.4-3.9l29.6,110.5l-14.4,3.9L540.5,232.7z"/>
	<path class="st2" d="M513.7,203.9c-0.5,2.4,0.8,4.9,3.1,5.8c3.4,1.4,8.2,4.2,11.9,9.6c3.7,5.5,6.5,13,8,18.1
		c0.9,3.1,4.4,4.6,7.2,3.2c2.4-1.2,3.6-3.8,2.7-6.3c-2.2-6.7-6.6-19.4-10.9-25.4c-3.5-4.8-10.1-8-14.9-9.9c-3.1-1.2-6.5,0.7-7,3.9
		L513.7,203.9L513.7,203.9z"/>
	<path class="st3" d="M513.7,203.9c-0.5,2.4,0.8,4.9,3.1,5.8c3.4,1.4,8.2,4.2,11.9,9.6c3.7,5.5,6.5,13,8,18.1
		c0.9,3.1,4.4,4.6,7.2,3.2l0,0c2.4-1.2,3.6-3.8,2.7-6.3c-2.2-6.7-6.6-19.4-10.9-25.4c-3.5-4.8-10.1-8-14.9-9.9
		c-3.1-1.2-6.5,0.7-7,3.9L513.7,203.9L513.7,203.9z"/>
	<path class="st4" d="M532.1,207.5c0-6.5-5.3-11.9-11.9-11.9c-1.5,0-2.8,0.2-4.1,0.7l-15.8,4.5l6.6,23.7l15.5-5.5
		C527.9,218.1,532.1,213.3,532.1,207.5L532.1,207.5z"/>
	<path class="st5" d="M507.9,203.9l15.8-4.5c1.3-0.5,2.7-0.7,4.1-0.7c0.2,0,0.2,0,0.4,0c-2.2-1.9-4.9-3.1-7.9-3.1
		c-1.5,0-2.8,0.2-4.1,0.7l-15.8,4.5l6.6,23.7l6.1-2.2L507.9,203.9L507.9,203.9z"/>
	<path class="st3" d="M532.1,207.5c0-6.5-5.3-11.9-11.9-11.9c-1.5,0-2.8,0.2-4.1,0.7l-15.8,4.5l6.6,23.7l15.5-5.5
		C527.9,218.1,532.1,213.3,532.1,207.5L532.1,207.5z"/>
	<circle class="st4" cx="500" cy="214" r="14.7"/>
	<circle class="st6" cx="500" cy="214" r="14.7"/>
	<ellipse class="st2" cx="264" cy="627" rx="61.7" ry="6.2"/>
	<ellipse class="st2" cx="640.4" cy="625.4" rx="61.7" ry="6.2"/>
	<path class="st7" d="M594,451l22.8-6.1l4.7,17.5l-22.8,6.2L594,451z"/>
	<path class="st8" d="M594,451l22.8-6.1l4.7,17.5l-22.8,6.2L594,451z"/>
	<path class="st2" d="M711.8,596.2c4-5,7.2-10.6,9.6-16.5l-40.5-23.4c-9.7-5.6-15.7-16-15.7-27.2V482c-3.1-0.4-6.3-0.7-9.4-0.7
		c-3.3,0-6.5,0.2-9.7,0.7v47.2c0,11.3-6,21.6-15.7,27.2l-40.5,23.3c2.5,5.9,5.7,11.4,9.6,16.5l40.4-23.3c9.7-5.6,21.7-5.6,31.4,0
		L711.8,596.2L711.8,596.2z"/>
	<path class="st4" d="M673.8,568.6c-5.5-3.2-11.8-4.9-18.2-4.9s-12.7,1.7-18.2,4.9l-36.5,21.1c-1.7-2.6-3.2-5.2-4.6-7.9l36.6-21.1
		c11.3-6.5,18.2-18.5,18.2-31.5v-42.7c1.6-0.1,3.1-0.2,4.7-0.2c1.5,0,3,0.1,4.5,0.2v42.7c0,13,7,25,18.2,31.5l36.7,21.2
		c-1.3,2.7-2.9,5.4-4.6,7.9L673.8,568.6L673.8,568.6z"/>
	<path class="st3" d="M711.8,596.2c4-5,7.2-10.6,9.6-16.5l-40.5-23.4c-9.7-5.6-15.7-16-15.7-27.2V482c-3.1-0.4-6.3-0.7-9.4-0.7
		c-3.3,0-6.5,0.2-9.7,0.7v47.2c0,11.3-6,21.6-15.7,27.2l-40.5,23.3c2.5,5.9,5.7,11.4,9.6,16.5l40.4-23.3c9.7-5.6,21.7-5.6,31.4,0
		L711.8,596.2L711.8,596.2z"/>
	<path class="st4" d="M655.7,481.3c-39.3,0-71.2,31.9-71.2,71.2s31.9,71.2,71.2,71.2s71.2-31.9,71.2-71.2
		C726.8,513.2,695,481.3,655.7,481.3z M655.7,599.4c-25.9,0-46.8-21-46.8-46.8s21-46.8,46.8-46.8s46.8,21,46.8,46.8
		S681.6,599.4,655.7,599.4z"/>
	<circle class="st9" cx="655.7" cy="552.5" r="71.2"/>
	<circle class="st9" cx="655.7" cy="552.5" r="71.2"/>
	<path class="st3" d="M655.7,481.3c-39.3,0-71.2,31.9-71.2,71.2s31.9,71.2,71.2,71.2s71.2-31.9,71.2-71.2
		C726.8,513.2,695,481.3,655.7,481.3z M655.7,599.4c-25.9,0-46.8-21-46.8-46.8s21-46.8,46.8-46.8s46.8,21,46.8,46.8
		S681.6,599.4,655.7,599.4z"/>
	<circle class="st3" cx="655.7" cy="552.5" r="71.2"/>
	<path class="st10" d="M693.8,501.5c15.5,11.7,25.6,30.1,25.6,51 M674.6,491.6c3.2,1,6.4,2.2,9.4,3.7"/>
	<circle class="st9" cx="655.7" cy="552.5" r="9.1"/>
	<path class="st11" d="M668.8,548.4l-12.4-23c-0.9-1.7-2.6-2.8-4.5-3.1c-6-0.7-12.6-2.8-17-6.4l-0.6,0.2l13.8,51.5l10.8-0.9
		C667.8,565.9,673,556.3,668.8,548.4L668.8,548.4z"/>
	<path class="st12" d="M663.5,559l-10.8-0.7L642,519.9c-2.6-1-5.1-2.3-7.1-4l-0.6,0.2l13.8,51.5l10.8-0.9c6-0.5,10.2-5,11.2-10.2
		C668.3,557.9,666,558.8,663.5,559L663.5,559z"/>
	<path class="st3" d="M668.8,548.4l-12.4-23c-0.9-1.7-2.6-2.8-4.5-3.1c-6-0.7-12.6-2.8-17-6.4l-0.6,0.2l13.8,51.5l10.8-0.9
		C667.8,565.9,673,556.3,668.8,548.4L668.8,548.4z"/>
	<circle class="st13" cx="655.7" cy="552.5" r="5.8"/>
	<circle class="st14" cx="655.7" cy="552.5" r="5.8"/>
	<circle class="st9" cx="285.4" cy="552.7" r="71.2"/>
	<path class="st2" d="M341.5,596.4c4-5,7.2-10.6,9.6-16.5l-40.5-23.4c-9.7-5.6-15.7-16-15.7-27.2v-47.2c-3.1-0.4-6.3-0.7-9.4-0.7
		c-3.3,0-6.5,0.2-9.7,0.7v47.2c0,11.3-6,21.6-15.7,27.2l-40.5,23.3c2.5,5.9,5.7,11.4,9.6,16.5l40.4-23.3c9.7-5.6,21.7-5.6,31.4,0
		L341.5,596.4L341.5,596.4z"/>
	<path class="st4" d="M303.4,568.8c-5.5-3.2-11.8-4.9-18.2-4.9c-6.4,0-12.7,1.7-18.2,4.9l-36.5,21.1c-1.7-2.6-3.2-5.2-4.6-7.9
		l36.6-21.1c11.3-6.5,18.2-18.5,18.2-31.5v-42.7c1.6-0.1,3.1-0.2,4.7-0.2c1.5,0,3,0.1,4.5,0.2v42.7c0,13,7,25,18.2,31.5l36.7,21.2
		c-1.3,2.7-2.9,5.4-4.6,7.9L303.4,568.8L303.4,568.8z"/>
	<path class="st3" d="M341.5,596.4c4-5,7.2-10.6,9.6-16.5l-40.5-23.4c-9.7-5.6-15.7-16-15.7-27.2v-47.2c-3.1-0.4-6.3-0.7-9.4-0.7
		c-3.3,0-6.5,0.2-9.7,0.7v47.2c0,11.3-6,21.6-15.7,27.2l-40.5,23.3c2.5,5.9,5.7,11.4,9.6,16.5l40.4-23.3c9.7-5.6,21.7-5.6,31.4,0
		L341.5,596.4L341.5,596.4z"/>
	<path class="st4" d="M285.4,481.5c-39.3,0-71.2,31.9-71.2,71.2s31.9,71.2,71.2,71.2s71.2-31.9,71.2-71.2
		C356.6,513.4,324.7,481.5,285.4,481.5z M285.4,599.5c-25.9,0-46.8-21-46.8-46.8s21-46.8,46.8-46.8s46.8,21,46.8,46.8
		S311.2,599.5,285.4,599.5z"/>
	<path class="st3" d="M285.4,481.5c-39.3,0-71.2,31.9-71.2,71.2s31.9,71.2,71.2,71.2s71.2-31.9,71.2-71.2
		C356.6,513.4,324.7,481.5,285.4,481.5z M285.4,599.5c-25.9,0-46.8-21-46.8-46.8s21-46.8,46.8-46.8s46.8,21,46.8,46.8
		S311.2,599.5,285.4,599.5z"/>
	<circle class="st3" cx="285.4" cy="552.7" r="71.2"/>
	<path class="st10" d="M348.1,541.4c0.7,3.7,1,7.5,1,11.3c0,16.7-6.5,32-17.1,43.4 M341.8,523.2c1.2,2.4,2.4,4.9,3.3,7.4"/>
	<circle class="st15" cx="285.3" cy="552.6" r="5.8"/>
	<path class="st9" d="M558.1,459.9l-27.3,73.2"/>
	<path class="st13" d="M502.6,538.1l-8.4,5.3c-9.1,5.7-19.6,8.8-30.4,8.8H384c-2.4,0-2.9-2.1-2.6-4.6c0.2-1.3,0-4.8-0.2-6.2
		c-1.2-9-7-14.9-12.2-15.6v6.8c1.3,4.7,2.2,10.3,2.2,16.4c0,2-0.1,3.9-0.2,5.7l0.6,3l0,0l3.2,0.6h9.1v8.3h83.2v-8.7h5.2
		c14.1-0.1,26.9-8.1,33.2-20.4C504.3,537.4,503.4,537.6,502.6,538.1L502.6,538.1z"/>
	<path class="st14" d="M502.6,538.1l-8.4,5.3c-9.1,5.7-19.6,8.8-30.4,8.8H384c-2.4,0-2.9-2.1-2.6-4.6c0.2-1.3,0-4.8-0.2-6.2
		c-1.2-9-7-14.9-12.2-15.6v6.8c1.3,4.7,2.2,10.3,2.2,16.4c0,2-0.1,3.9-0.2,5.7l0.6,3l0,0l3.2,0.6h9.1v8.3h83.2v-8.7h5.2
		c13.3-0.1,25.4-7.2,32-18.4C504.6,538.6,503.5,537.6,502.6,538.1L502.6,538.1L502.6,538.1z"/>
	<path class="st11" d="M571.9,365.7l22.3-6l24,89.5l-22.3,6L571.9,365.7z"/>
	<path class="st12" d="M602.6,451.5l-23.5-87.7l-7.1,1.9l24,89.5l22.3-6l-0.5-1.8L602.6,451.5z"/>
	<path class="st12" d="M582.5,390.1c0,0,6.1,4.8,10.5,12.9c7.1,13.2,4.5,29.4,4.5,29.4l-2.3,2.2L582.5,390.1z"/>
	<path class="st13" d="M597.5,358.8l-28.8,7.7c-2.5-7.7-3.4-15.9-3.4-24.2l23-6.2C592.5,343.4,595.9,351,597.5,358.8z"/>
	<path class="st4" d="M597.5,358.8l-28.8,7.7c-2.5-7.7-3.4-15.9-3.4-24.2l23-6.2C592.5,343.4,595.9,351,597.5,358.8z"/>
	<path d="M577.6,363.8c-2.4-7.5-3.3-15.6-3.4-23.8l-8.8,2.4c0.1,8.3,1,16.5,3.4,24.2l28.8-7.7c0-0.2-0.1-0.2-0.1-0.4L577.6,363.8
		L577.6,363.8z"/>
	<path class="st3" d="M571.9,365.7l22.3-6l24,89.5l-22.3,6L571.9,365.7z"/>
	<path class="st2" d="M614.7,452.9l-15.6,4.1c-3.3,0.9-6.8-1.1-7.7-4.4l0,0c-0.9-3.3,1.1-6.8,4.4-7.7l0,0l15.6-4.1
		c3.4-0.8,6.8,1.2,7.6,4.6C619.9,448.7,618,452,614.7,452.9z"/>
	<path class="st16" d="M607.4,454.7c-3.3,0.9-6.8-1.1-7.7-4.4l0,0c-0.7-2.7,0.5-5.5,2.8-7l-6.6,1.7c-3.3,0.9-5.3,4.4-4.3,7.7
		c0.9,3.2,4.3,5.2,7.5,4.4l15.6-4.1c0.6-0.2,1.2-0.4,1.7-0.7L607.4,454.7L607.4,454.7z"/>
	<path class="st3" d="M614.7,452.9l-15.6,4.1c-3.3,0.9-6.8-1.1-7.7-4.4l0,0l0,0c-0.9-3.3,1.1-6.8,4.4-7.7l0,0l15.6-4.1
		c3.3-0.9,6.8,1.1,7.7,4.4l0,0l0,0C620.1,448.6,618.1,452,614.7,452.9z M597.5,358.8l-28.8,7.7c-2.5-7.7-3.4-15.9-3.4-24.2l23-6.2
		C592.5,343.4,595.9,351,597.5,358.8z"/>
	<path class="st11" d="M593,425.5l-39.4,108.1c-9.8,26.7-35.2,44.5-63.6,44.5H372.9v-0.2v0.2l-44.3-7.8l-26.9-1.4l-22.9-4.1
		c-4.3-0.7-7.1-4.8-6.4-9.1l1.8-10.6c0.7-4.3,4.9-7.1,9.1-6.4l22.9,4.1l25.7,7.9l42.6,7.5c0,0,60.7-0.2,97.5-0.4
		c16.2-0.1,30.6-10.7,35.5-26.1l13.5-42.5c4.4-10.6,12.8-19,23.3-23.5l13.7-5.8l22.8-63.4C585.4,400.2,591.2,408.3,593,425.5
		L593,425.5z"/>
	<path class="st11" d="M306.2,542.9l-22.9-4.1c-4.3-0.7-8.4,2.1-9.1,6.4l-1.8,10.6c-0.7,4.3,2.1,8.4,6.4,9.1l22.9,4.1l26.9,1.4
		l44.3,7.8l-0.3-18.5l-4.5-2.5l-36.1-6.4L306.2,542.9L306.2,542.9z"/>
	<path class="st12" d="M553.7,529.9c-9.8,26.7-35.2,44.5-63.6,44.5H372.9v-0.2v0.2l-44.3-7.8l-26.9-1.4l-22.9-4.1
		c-3.1-0.6-5.6-2.9-6.3-6l-0.1,0.5c-0.7,4.3,2.1,8.4,6.4,9.1l22.9,4.1l26.9,1.4l44.3,7.8v-0.2v0.2H490c28.5,0,53.9-17.8,63.6-44.5
		l39.4-108c-0.1-0.9-0.2-1.8-0.3-2.7L553.7,529.9z"/>
	<path class="st12" d="M276.8,558.2l1.8-10.6c0.7-4.3,4.9-7.1,9.1-6.4l22.9,4.1l25.7,7.9l42.6,7.5c0,0,60.7-0.2,97.5-0.4
		c16.2-0.1,30.6-10.7,35.5-26.1l13.5-42.5c4.4-10.6,12.8-19,23.3-23.5l19.9-8.3l19.8-54.9c-1.4-1.9-6.2-8.2-7.5-9.3L558.1,459
		l-13.7,5.8c-10.5,4.5-18.9,12.9-23.3,23.5l-13.5,42.5c-4.9,15.5-19.3,26.1-35.5,26.1c-36.7,0.2-97.5,0.4-97.5,0.4l-42.6-7.5
		l-25.7-7.9l-22.9-4.1c-4.3-0.7-8.4,2.1-9.1,6.4l-1.8,10.6c-0.7,4,1.7,7.9,5.6,8.9C276.8,562.2,276.4,560.2,276.8,558.2z"/>
	<path class="st17" d="M372.5,559.6l-4.5-2.5l-36.1-6.4l-3.5,19.5l44.3,7.8L372.5,559.6z"/>
	<path class="st3" d="M593,425.5l-39.4,108.1c-9.8,26.7-35.2,44.5-63.6,44.5H372.9v-0.2v0.2l-44.3-7.8l-26.9-1.4l-22.9-4.1
		c-4.3-0.7-7.1-4.8-6.4-9.1l1.8-10.6c0.7-4.3,4.9-7.1,9.1-6.4l22.9,4.1l25.7,7.9l42.6,7.5c0,0,60.7-0.2,97.5-0.4
		c16.2-0.1,30.6-10.7,35.5-26.1l13.5-42.5c4.4-10.6,12.8-19,23.3-23.5l13.7-5.8l22.8-63.4C585.4,400.2,591.2,408.3,593,425.5
		L593,425.5z"/>
	<path class="st11" d="M648.2,567.6l-28-104.3c-1.4-5.3-6.9-8.4-12.2-7s-8.4,6.9-7,12.2l24.9,92.8c1.2,4.6,5.6,7.7,10.4,7.4
		L648.2,567.6z"/>
	<path class="st12" d="M640.5,563.3c-4.8,0.4-9.2-2.6-10.4-7.4l-24.9-92.8c-0.5-1.9-0.4-3.8,0.2-5.6c-3.6,2.2-5.5,6.7-4.3,11
		l24.9,92.8c1.2,4.6,5.6,7.7,10.4,7.4l11.8-1l-1.3-4.9L640.5,563.3z"/>
	<path class="st3" d="M648.2,567.6l-28-104.3c-1.4-5.3-6.9-8.4-12.2-7l0,0c-5.3,1.4-8.4,6.9-7,12.2l24.9,92.8
		c1.2,4.6,5.6,7.7,10.4,7.4L648.2,567.6z"/>
	<circle class="st12" cx="287" cy="552.6" r="7.9"/>
	<circle class="st13" cx="285.3" cy="552.6" r="5.8"/>
	<circle class="st14" cx="285.3" cy="552.6" r="5.8"/>
	<path class="st10" d="M538.2,545.3c-1.2,1.4-2.4,2.7-3.7,4 M561.9,487.3c0,0-9.8,29.1-13.9,40c-1.7,4.4-3.7,8.9-6.4,13.2"/>
	<path class="st18" d="M583.9,341.8c0,0,0.2-0.1,1.2,2.3 M586.5,347.8c0,0,1.8,5,2.3,8.4 M603,448l8.9-2.5 M610.9,461.3
		c0,0,1.9,0.2,3.3,1.5 M374.4,563.9v4.8 M374.4,572.1v2.3"/>
	<path class="st4" d="M561.6,238.4l-21,7.6l-5.5-15.1c-2.1-5.8,0.9-12.2,6.7-14.3c5.8-2.2,12.2,0.9,14.3,6.7L561.6,238.4z"/>
	<circle class="st19" cx="547.5" cy="231.6" r="8.4"/>
	<path class="st3" d="M561.6,238.4l-21,7.6l-5.5-15.1c-2.1-5.8,0.9-12.2,6.7-14.3l0,0c5.8-2.2,12.2,0.9,14.3,6.7L561.6,238.4z"/>
	<path class="st20" d="M518.7,197.2c-0.5,2.4,0.8,4.9,3.1,5.8c3.4,1.4,8.2,4.2,11.9,9.6c3.7,5.5,6.5,13,8,18.1
		c0.9,3.1,4.4,4.6,7.2,3.2c2.4-1.2,3.6-3.8,2.7-6.3c-2.2-6.7-6.6-19.4-10.9-25.4c-3.5-4.8-10.1-8-14.9-9.9c-3.1-1.2-6.5,0.7-7,3.9
		L518.7,197.2L518.7,197.2z"/>
	<path class="st2" d="M545.7,230.2c-1.6-5.1-4.3-12.7-8-18.1c-3.7-5.4-8.5-8.2-11.9-9.6c-2.3-0.9-3.6-3.4-3.1-5.8l0.2-1
		c0.2-1.5,1.2-2.7,2.5-3.6c-2.9-0.7-5.9,1.1-6.5,4.1l-0.2,1c-0.5,2.4,0.8,4.9,3.1,5.8c3.4,1.4,8.2,4.2,11.9,9.6
		c3.7,5.5,6.5,13,8,18.1c0.9,3.1,4.4,4.6,7.2,3.2c0.2-0.1,0.2-0.2,0.4-0.2C547.6,233.3,546.2,232,545.7,230.2L545.7,230.2z"/>
	<path class="st3" d="M518.7,197.2c-0.5,2.4,0.8,4.9,3.1,5.8c3.4,1.4,8.2,4.2,11.9,9.6c3.7,5.5,6.5,13,8,18.1
		c0.9,3.1,4.4,4.6,7.2,3.2l0,0c2.4-1.2,3.6-3.8,2.7-6.3c-2.2-6.7-6.6-19.4-10.9-25.4c-3.5-4.8-10.1-8-14.9-9.9
		c-3.1-1.2-6.5,0.7-7,3.9L518.7,197.2L518.7,197.2z"/>
	<path class="st3" d="M548.7,196.5l-1.2,8.5l-12.8-1.7l1.2-8.5L548.7,196.5z"/>
	<path class="st21" d="M548.8,196.6l-1.2,8.5l-12.8-1.9l1.2-8.5L548.8,196.6z"/>
	<path class="st4" d="M537.1,200.9c0-6.5-5.3-11.9-11.9-11.9c-1.5,0-2.8,0.2-4.1,0.7l-15.8,4.5l6.6,23.7l15.5-5.5
		C532.9,211.5,537.1,206.7,537.1,200.9L537.1,200.9z"/>
	<path class="st11" d="M512.9,197.3l15.8-4.5c1.3-0.5,2.7-0.7,4.1-0.7c0.2,0,0.2,0,0.4,0c-2.2-1.9-4.9-3.1-7.9-3.1
		c-1.5,0-2.8,0.2-4.1,0.7l-15.8,4.5L512,218l6.1-2.2L512.9,197.3L512.9,197.3z"/>
	<path class="st3" d="M537.1,200.9c0-6.5-5.3-11.9-11.9-11.9c-1.5,0-2.8,0.2-4.1,0.7l-15.8,4.5l6.6,23.7l15.5-5.5
		C532.9,211.5,537.1,206.7,537.1,200.9L537.1,200.9z"/>
	
		<ellipse transform="matrix(0.3827 -0.9239 0.9239 0.3827 120.0706 594.4983)" class="st4" cx="504.9" cy="207.4" rx="14.7" ry="14.7"/>
	
		<ellipse transform="matrix(0.3827 -0.9239 0.9239 0.3827 120.0706 594.4983)" class="st6" cx="504.9" cy="207.4" rx="14.7" ry="14.7"/>
	
		<ellipse transform="matrix(0.2092 -0.9779 0.9779 0.2092 244.8478 687.8199)" class="st22" cx="547.7" cy="192.5" rx="1.5" ry="2.6"/>
	<path class="st3" d="M546.4,196.7l1.2-3.5"/>
	<path class="st23" d="M540.5,196.7l5.5,0.9"/>
	<path class="st24" d="M292,544.3l7.4,1.4 M302.2,546.2l3.7,0.7"/>
	<text transform="matrix(0.7195 0 0 1 238.5737 412.3262)" class="st1 st25 st26">RunRentals</text>
</g>
</svg>
