<?xml version="1.0" encoding="utf-8"?>
<!-- Generator: Adobe Illustrator 27.0.1, SVG Export Plug-In . SVG Version: 6.00 Build 0)  -->
<svg version="1.1" id="Layer_1" xmlns="http://www.w3.org/2000/svg" xmlns:xlink="http://www.w3.org/1999/xlink" x="0px" y="0px"
	 viewBox="0 0 1000 1000" style="enable-background:new 0 0 1000 1000;" xml:space="preserve">
<style type="text/css">
	.st0{fill:none;stroke:#000000;stroke-width:5;stroke-linecap:round;stroke-linejoin:round;stroke-miterlimit:10;}
	.st1{fill:#FFFFFF;}
	.st2{fill:#F5F5F5;}
	.st3{fill:none;stroke:#000000;stroke-width:4;stroke-linecap:round;stroke-linejoin:round;stroke-miterlimit:10;}
	.st4{fill:#191B1A;}
	.st5{fill:#A84582;}
	.st6{fill:none;stroke:#000000;stroke-width:6;stroke-linecap:round;stroke-linejoin:round;stroke-miterlimit:10;}
	.st7{fill:#CB3272;}
	.st8{fill:#E58800;stroke:#000000;stroke-width:4;stroke-linecap:round;stroke-linejoin:round;stroke-miterlimit:10;}
	.st9{fill:none;stroke:#5A1A3C;stroke-width:4;stroke-linecap:round;stroke-linejoin:round;stroke-miterlimit:10;}
	.st10{fill:none;stroke:#FFFAFD;stroke-width:4;stroke-linecap:round;stroke-linejoin:round;stroke-miterlimit:10;}
	.st11{fill:#FE9C00;}
	.st12{fill:#E58800;}
	.st13{fill:#601D43;}
	.st14{fill:#191B1A;stroke:#000000;stroke-width:4;stroke-linecap:round;stroke-linejoin:round;stroke-miterlimit:10;}
	.st15{fill:#BFB3C1;}
	.st16{fill:#E5E5E5;}
	.st17{opacity:0.57;fill:#E58800;enable-background:new    ;}
	.st18{fill:none;stroke:#FFFAFD;stroke-width:2;stroke-linecap:round;stroke-linejoin:round;stroke-miterlimit:10;}
	.st19{fill:#191B1A;stroke:#191B1A;stroke-miterlimit:10;}
	.st20{fill:#FFFFFF;stroke:#000000;stroke-miterlimit:10;}
	.st21{fill:#191B1A;stroke:#000000;stroke-miterlimit:10;}
	.st22{fill:none;stroke:#000000;stroke-width:6.0002;stroke-linecap:round;stroke-linejoin:round;stroke-miterlimit:10.0003;}
	.st23{fill:#5A1A3C;stroke:#000000;stroke-width:1;stroke-miterlimit:10.0027;}
	.st24{fill:#B8FF52;stroke:#000000;stroke-width:2;stroke-linecap:round;stroke-linejoin:round;stroke-miterlimit:10;}
	
		.st25{opacity:0.29;fill:#F5F5F5;stroke:#FFFAFD;stroke-width:2;stroke-linecap:round;stroke-linejoin:round;stroke-miterlimit:10;enable-background:new    ;}
	.st26{font-family:'JosefinSans-BoldItalic';}
	.st27{font-size:103.7776px;}
</style>
<g id="Layer_1_00000013886247665116257380000014858954481241034922_">
	<path class="st0" d="M602.2,222.3c11.5,1.8,33,7,50.9,24.2c12.5,12,21.9,28.6,27.7,59.7c12.6,68.4-4.9,141.1-14.4,174.4"/>
	<path class="st1" d="M595.1,264.6l18.6-5L651.8,402l-18.6,5L595.1,264.6z"/>
	<path class="st2" d="M604.8,286.3l14.7-4.5l-2.2-8.1l-17.1,4L604.8,286.3z"/>
	<path class="st2" d="M638.8,405.2l-38-142l-5.7,1.5l38.2,142.4l18.6-5l-0.1-0.3L638.8,405.2z"/>
	<path class="st3" d="M595.1,264.6l18.6-5L651.8,402l-18.6,5L595.1,264.6z"/>
	<path class="st2" d="M560.6,227.4c-0.6,3.1,1,6.3,4,7.5c4.4,1.8,10.6,5.4,15.3,12.4c4.8,7.1,8.4,16.8,10.3,23.3
		c1.2,4,5.7,5.9,9.3,4.1c3.1-1.5,4.6-4.9,3.5-8.1c-2.8-8.6-8.5-25-14-32.7c-4.5-6.2-13-10.3-19.2-12.8c-4-1.5-8.4,0.9-9,5
		L560.6,227.4L560.6,227.4z"/>
	<path class="st3" d="M560.6,227.4c-0.6,3.1,1,6.3,4,7.5c4.4,1.8,10.6,5.4,15.3,12.4c4.8,7.1,8.4,16.8,10.3,23.3
		c1.2,4,5.7,5.9,9.3,4.1l0,0c3.1-1.5,4.6-4.9,3.5-8.1c-2.8-8.6-8.5-25-14-32.7c-4.5-6.2-13-10.3-19.2-12.8c-4-1.5-8.4,0.9-9,5
		L560.6,227.4L560.6,227.4z"/>
	<path class="st4" d="M584.3,232.1c0-8.4-6.8-15.3-15.3-15.3c-1.9,0-3.6,0.3-5.3,0.9l-20.4,5.8l8.5,30.5l20-7.1
		C578.9,245.7,584.3,239.6,584.3,232.1L584.3,232.1z"/>
	<path class="st5" d="M553.1,227.4l20.4-5.8c1.7-0.6,3.5-0.9,5.3-0.9c0.3,0,0.3,0,0.5,0c-2.8-2.4-6.3-4-10.2-4
		c-1.9,0-3.6,0.3-5.3,0.9l-20.4,5.8l8.5,30.5l7.9-2.8L553.1,227.4L553.1,227.4z"/>
	<path class="st3" d="M584.3,232.1c0-8.4-6.8-15.3-15.3-15.3c-1.9,0-3.6,0.3-5.3,0.9l-20.4,5.8l8.5,30.5l20-7.1
		C578.9,245.7,584.3,239.6,584.3,232.1L584.3,232.1z"/>
	<circle class="st4" cx="542.9" cy="240.5" r="18.9"/>
	<circle class="st6" cx="542.9" cy="240.5" r="18.9"/>
	<ellipse class="st2" cx="238.7" cy="772.8" rx="79.5" ry="8"/>
	<ellipse class="st2" cx="723.9" cy="770.7" rx="79.5" ry="8"/>
	<path class="st7" d="M664.1,545.9l29.4-7.9l6.1,22.6l-29.4,8L664.1,545.9z"/>
	<path class="st8" d="M664.1,545.9l29.4-7.9l6.1,22.6l-29.4,8L664.1,545.9z"/>
	<path class="st2" d="M815.9,733.1c5.2-6.4,9.3-13.7,12.4-21.3l-52.2-30.2c-12.5-7.2-20.2-20.6-20.2-35.1v-60.7
		c-4-0.5-8.1-0.9-12.1-0.9c-4.3,0-8.4,0.3-12.5,0.9v60.8c0,14.6-7.7,27.8-20.2,35.1l-52.2,30c3.2,7.6,7.3,14.7,12.4,21.3l52.1-30
		c12.5-7.2,28-7.2,40.5,0L815.9,733.1L815.9,733.1z"/>
	<path class="st4" d="M766.9,697.5c-7.1-4.1-15.2-6.3-23.5-6.3s-16.4,2.2-23.5,6.3l-47,27.2c-2.2-3.4-4.1-6.7-5.9-10.2l47.2-27.2
		c14.6-8.4,23.5-23.8,23.5-40.6v-55c2.1-0.1,4-0.3,6.1-0.3c1.9,0,3.9,0.1,5.8,0.3v55c0,16.8,9,32.2,23.5,40.6l47.3,27.3
		c-1.7,3.5-3.7,7-5.9,10.2L766.9,697.5L766.9,697.5z"/>
	<path class="st3" d="M815.9,733.1c5.2-6.4,9.3-13.7,12.4-21.3l-52.2-30.2c-12.5-7.2-20.2-20.6-20.2-35.1v-60.7
		c-4-0.5-8.1-0.9-12.1-0.9c-4.3,0-8.4,0.3-12.5,0.9v60.8c0,14.6-7.7,27.8-20.2,35.1l-52.2,30c3.2,7.6,7.3,14.7,12.4,21.3l52.1-30
		c12.5-7.2,28-7.2,40.5,0L815.9,733.1L815.9,733.1z"/>
	<path class="st4" d="M743.6,585c-50.7,0-91.8,41.1-91.8,91.8s41.1,91.8,91.8,91.8s91.8-41.1,91.8-91.8
		C835.2,626.1,794.3,585,743.6,585z M743.6,737.2c-33.4,0-60.3-27.1-60.3-60.3s27.1-60.3,60.3-60.3s60.3,27.1,60.3,60.3
		S777,737.2,743.6,737.2z"/>
	<circle class="st9" cx="743.6" cy="676.8" r="91.8"/>
	<circle class="st9" cx="743.6" cy="676.8" r="91.8"/>
	<path class="st3" d="M743.6,585c-50.7,0-91.8,41.1-91.8,91.8s41.1,91.8,91.8,91.8s91.8-41.1,91.8-91.8
		C835.2,626.1,794.3,585,743.6,585z M743.6,737.2c-33.4,0-60.3-27.1-60.3-60.3s27.1-60.3,60.3-60.3s60.3,27.1,60.3,60.3
		S777,737.2,743.6,737.2z"/>
	<circle class="st3" cx="743.6" cy="676.8" r="91.8"/>
	<path class="st10" d="M792.7,611c20,15.1,33,38.8,33,65.7 M768,598.3c4.1,1.3,8.2,2.8,12.1,4.8"/>
	<circle class="st9" cx="743.6" cy="676.8" r="11.7"/>
	<path class="st11" d="M760.5,671.5l-16-29.6c-1.2-2.2-3.4-3.6-5.8-4c-7.7-0.9-16.2-3.6-21.9-8.2l-0.8,0.3l17.8,66.4l13.9-1.2
		C759.2,694,765.9,681.7,760.5,671.5L760.5,671.5z"/>
	<path class="st12" d="M753.7,685.1l-13.9-0.9l-13.8-49.5c-3.4-1.3-6.6-3-9.2-5.2l-0.8,0.3l17.8,66.4l13.9-1.2
		c7.7-0.6,13.1-6.4,14.4-13.1C759.8,683.7,756.9,684.9,753.7,685.1L753.7,685.1z"/>
	<path class="st3" d="M760.5,671.5l-16-29.6c-1.2-2.2-3.4-3.6-5.8-4c-7.7-0.9-16.2-3.6-21.9-8.2l-0.8,0.3l17.8,66.4l13.9-1.2
		C759.2,694,765.9,681.7,760.5,671.5L760.5,671.5z"/>
	<circle class="st13" cx="743.6" cy="676.8" r="7.5"/>
	<circle class="st14" cx="743.6" cy="676.8" r="7.5"/>
	<circle class="st9" cx="266.3" cy="677" r="91.8"/>
	<path class="st2" d="M338.6,733.4c5.2-6.4,9.3-13.7,12.4-21.3l-52.2-30.2c-12.5-7.2-20.2-20.6-20.2-35.1V586
		c-4-0.5-8.1-0.9-12.1-0.9c-4.3,0-8.4,0.3-12.5,0.9v60.8c0,14.6-7.7,27.8-20.2,35.1l-52.2,30c3.2,7.6,7.3,14.7,12.4,21.3l52.1-30
		c12.5-7.2,28-7.2,40.5,0L338.6,733.4L338.6,733.4z"/>
	<path class="st4" d="M289.5,697.8c-7.1-4.1-15.2-6.3-23.5-6.3c-8.2,0-16.4,2.2-23.5,6.3l-47,27.2c-2.2-3.4-4.1-6.7-5.9-10.2
		l47.2-27.2c14.6-8.4,23.5-23.8,23.5-40.6v-55c2.1-0.1,4-0.3,6.1-0.3c1.9,0,3.9,0.1,5.8,0.3v55c0,16.8,9,32.2,23.5,40.6l47.3,27.3
		c-1.7,3.5-3.7,7-5.9,10.2L289.5,697.8L289.5,697.8z"/>
	<path class="st3" d="M338.6,733.4c5.2-6.4,9.3-13.7,12.4-21.3l-52.2-30.2c-12.5-7.2-20.2-20.6-20.2-35.1V586
		c-4-0.5-8.1-0.9-12.1-0.9c-4.3,0-8.4,0.3-12.5,0.9v60.8c0,14.6-7.7,27.8-20.2,35.1l-52.2,30c3.2,7.6,7.3,14.7,12.4,21.3l52.1-30
		c12.5-7.2,28-7.2,40.5,0L338.6,733.4L338.6,733.4z"/>
	<path class="st4" d="M266.3,585.3c-50.7,0-91.8,41.1-91.8,91.8s41.1,91.8,91.8,91.8s91.8-41.1,91.8-91.8
		C358.1,626.4,317,585.3,266.3,585.3z M266.3,737.3c-33.4,0-60.3-27.1-60.3-60.3c0-33.3,27.1-60.3,60.3-60.3s60.3,27.1,60.3,60.3
		C326.6,710.3,299.6,737.3,266.3,737.3z"/>
	<path class="st3" d="M266.3,585.3c-50.7,0-91.8,41.1-91.8,91.8s41.1,91.8,91.8,91.8s91.8-41.1,91.8-91.8
		C358.1,626.4,317,585.3,266.3,585.3z M266.3,737.3c-33.4,0-60.3-27.1-60.3-60.3c0-33.3,27.1-60.3,60.3-60.3s60.3,27.1,60.3,60.3
		C326.6,710.3,299.6,737.3,266.3,737.3z"/>
	<circle class="st3" cx="266.3" cy="677" r="91.8"/>
	<path class="st10" d="M347.1,662.5c0.9,4.8,1.3,9.7,1.3,14.6c0,21.5-8.4,41.2-22,55.9 M339,639c1.5,3.1,3.1,6.3,4.3,9.5"/>
	<circle class="st15" cx="266.2" cy="676.9" r="7.5"/>
	<path class="st9" d="M617.8,557.4l-35.2,94.4"/>
	<path class="st13" d="M546.3,658.2l-10.8,6.8c-11.7,7.3-25.3,11.3-39.2,11.3H393.4c-3.1,0-3.7-2.7-3.4-5.9c0.3-1.7,0-6.2-0.3-8
		c-1.5-11.6-9-19.2-15.7-20.1v8.8c1.7,6.1,2.8,13.3,2.8,21.1c0,2.6-0.1,5-0.3,7.3l0.8,3.9l0,0l4.1,0.8h11.7v10.7h107.2v-11.2h6.7
		c18.2-0.1,34.7-10.4,42.8-26.3C548.5,657.3,547.3,657.6,546.3,658.2L546.3,658.2z"/>
	<path class="st14" d="M546.3,658.2l-10.8,6.8c-11.7,7.3-25.3,11.3-39.2,11.3H393.4c-3.1,0-3.7-2.7-3.4-5.9c0.3-1.7,0-6.2-0.3-8
		c-1.5-11.6-9-19.2-15.7-20.1v8.8c1.7,6.1,2.8,13.3,2.8,21.1c0,2.6-0.1,5-0.3,7.3l0.8,3.9l0,0l4.1,0.8h11.7v10.7h107.2v-11.2h6.7
		c17.1-0.1,32.7-9.3,41.2-23.7C548.8,658.9,547.4,657.6,546.3,658.2L546.3,658.2L546.3,658.2z"/>
	<path class="st11" d="M635.6,436l28.7-7.7l30.9,115.4l-28.7,7.7L635.6,436z"/>
	<path class="st12" d="M675.2,546.6l-30.3-113l-9.2,2.4l30.9,115.4l28.7-7.7l-0.6-2.3L675.2,546.6z"/>
	<path class="st12" d="M649.3,467.4c0,0,7.9,6.2,13.5,16.6c9.2,17,5.8,37.9,5.8,37.9l-3,2.8L649.3,467.4z"/>
	<path class="st13" d="M668.6,427.1l-37.1,9.9c-3.2-9.9-4.4-20.5-4.4-31.2l29.6-8C662.1,407.2,666.5,417,668.6,427.1z"/>
	<path class="st4" d="M668.6,427.1l-37.1,9.9c-3.2-9.9-4.4-20.5-4.4-31.2l29.6-8C662.1,407.2,666.5,417,668.6,427.1z"/>
	<path d="M642.9,433.5c-3.1-9.7-4.3-20.1-4.4-30.7l-11.3,3.1c0.1,10.7,1.3,21.3,4.4,31.2l37.1-9.9c0-0.3-0.1-0.3-0.1-0.5
		L642.9,433.5L642.9,433.5z"/>
	<path class="st3" d="M635.6,436l28.7-7.7l30.9,115.4l-28.7,7.7L635.6,436z"/>
	<path class="st2" d="M690.8,548.4l-20.1,5.3c-4.3,1.2-8.8-1.4-9.9-5.7l0,0c-1.2-4.3,1.4-8.8,5.7-9.9l0,0l20.1-5.3
		c4.4-1,8.8,1.5,9.8,5.9C697.5,543,695,547.2,690.8,548.4z"/>
	<path class="st16" d="M681.3,550.7c-4.3,1.2-8.8-1.4-9.9-5.7l0,0c-0.9-3.5,0.6-7.1,3.6-9l-8.5,2.2c-4.3,1.2-6.8,5.7-5.5,9.9
		c1.2,4.1,5.5,6.7,9.7,5.7l20.1-5.3c0.8-0.3,1.5-0.5,2.2-0.9L681.3,550.7L681.3,550.7z"/>
	<path class="st3" d="M690.8,548.4l-20.1,5.3c-4.3,1.2-8.8-1.4-9.9-5.7l0,0l0,0c-1.2-4.3,1.4-8.8,5.7-9.9l0,0l20.1-5.3
		c4.3-1.2,8.8,1.4,9.9,5.7l0,0l0,0C697.7,542.8,695.1,547.2,690.8,548.4z M668.6,427.1l-37.1,9.9c-3.2-9.9-4.4-20.5-4.4-31.2l29.6-8
		C662.1,407.2,666.5,417,668.6,427.1z"/>
	<path class="st11" d="M662.8,513.1L612,652.4c-12.6,34.4-45.4,57.4-82,57.4H379.1v-0.3v0.3L322,699.7l-34.7-1.8l-29.5-5.3
		c-5.5-0.9-9.2-6.2-8.2-11.7l2.3-13.7c0.9-5.5,6.3-9.2,11.7-8.2l29.5,5.3l33.1,10.2l54.9,9.7c0,0,78.2-0.3,125.7-0.5
		c20.9-0.1,39.4-13.8,45.8-33.6l17.4-54.8c5.7-13.7,16.5-24.5,30-30.3l17.7-7.5l29.4-81.7C653,480.5,660.5,490.9,662.8,513.1
		L662.8,513.1z"/>
	<path class="st11" d="M293.1,664.4l-29.5-5.3c-5.5-0.9-10.8,2.7-11.7,8.2l-2.3,13.7c-0.9,5.5,2.7,10.8,8.2,11.7l29.5,5.3l34.7,1.8
		l57.1,10.1l-0.4-23.8l-5.8-3.2l-46.5-8.2L293.1,664.4L293.1,664.4z"/>
	<path class="st12" d="M612.1,647.6c-12.6,34.4-45.4,57.4-82,57.4H379.1v-0.3v0.3L322,694.9l-34.7-1.8l-29.5-5.3
		c-4-0.8-7.2-3.7-8.1-7.7l-0.1,0.6c-0.9,5.5,2.7,10.8,8.2,11.7l29.5,5.3l34.7,1.8l57.1,10.1v-0.3v0.3H530c36.7,0,69.5-22.9,82-57.4
		l50.8-139.2c-0.1-1.2-0.3-2.3-0.4-3.5L612.1,647.6z"/>
	<path class="st12" d="M255.2,684.1l2.3-13.7c0.9-5.5,6.3-9.2,11.7-8.2l29.5,5.3l33.1,10.2l54.9,9.7c0,0,78.2-0.3,125.7-0.5
		c20.9-0.1,39.4-13.8,45.8-33.6l17.4-54.8c5.7-13.7,16.5-24.5,30-30.3l25.7-10.7l25.5-70.8c-1.8-2.4-8-10.6-9.7-12l-29.4,81.6
		l-17.7,7.5c-13.5,5.8-24.4,16.6-30,30.3l-17.4,54.8c-6.3,20-24.9,33.6-45.8,33.6c-47.3,0.3-125.7,0.5-125.7,0.5l-54.9-9.7
		l-33.1-10.2l-29.5-5.3c-5.5-0.9-10.8,2.7-11.7,8.2l-2.3,13.7c-0.9,5.2,2.2,10.2,7.2,11.5C255.2,689.3,254.7,686.7,255.2,684.1z"/>
	<path class="st17" d="M378.6,685.9l-5.8-3.2l-46.5-8.2l-4.5,25.1l57.1,10.1L378.6,685.9z"/>
	<path class="st3" d="M662.8,513.1L612,652.4c-12.6,34.4-45.4,57.4-82,57.4H379.1v-0.3v0.3L322,699.7l-34.7-1.8l-29.5-5.3
		c-5.5-0.9-9.2-6.2-8.2-11.7l2.3-13.7c0.9-5.5,6.3-9.2,11.7-8.2l29.5,5.3l33.1,10.2l54.9,9.7c0,0,78.2-0.3,125.7-0.5
		c20.9-0.1,39.4-13.8,45.8-33.6l17.4-54.8c5.7-13.7,16.5-24.5,30-30.3l17.7-7.5l29.4-81.7C653,480.5,660.5,490.9,662.8,513.1
		L662.8,513.1z"/>
	<path class="st11" d="M733.9,696.2l-36.1-134.4c-1.8-6.8-8.9-10.8-15.7-9c-6.8,1.8-10.8,8.9-9,15.7l32.1,119.6
		c1.5,5.9,7.2,9.9,13.4,9.5L733.9,696.2z"/>
	<path class="st12" d="M724,690.7c-6.2,0.5-11.9-3.4-13.4-9.5l-32.1-119.6c-0.6-2.4-0.5-4.9,0.3-7.2c-4.6,2.8-7.1,8.6-5.5,14.2
		l32.1,119.6c1.5,5.9,7.2,9.9,13.4,9.5l15.2-1.3l-1.7-6.3L724,690.7z"/>
	<path class="st3" d="M733.9,696.2l-36.1-134.4c-1.8-6.8-8.9-10.8-15.7-9l0,0c-6.8,1.8-10.8,8.9-9,15.7l32.1,119.6
		c1.5,5.9,7.2,9.9,13.4,9.5L733.9,696.2z"/>
	<circle class="st12" cx="268.4" cy="676.9" r="10.2"/>
	<circle class="st13" cx="266.2" cy="676.9" r="7.5"/>
	<circle class="st14" cx="266.2" cy="676.9" r="7.5"/>
	<path class="st10" d="M592.2,667.5c-1.5,1.8-3.1,3.5-4.8,5.2 M622.7,592.7c0,0-12.6,37.5-17.9,51.6c-2.2,5.7-4.8,11.5-8.2,17"/>
	<path class="st18" d="M651.1,405.2c0,0,0.3-0.1,1.5,3 M654.4,412.9c0,0,2.3,6.4,3,10.8 M675.7,542.1l11.5-3.2 M685.9,559.2
		c0,0,2.4,0.3,4.3,1.9 M381,691.5v6.2 M381,702v3"/>
	<path class="st4" d="M622.3,271.9l-27.1,9.8l-7.1-19.5c-2.7-7.5,1.2-15.7,8.6-18.4c7.5-2.8,15.7,1.2,18.4,8.6L622.3,271.9z"/>
	<circle class="st19" cx="604.1" cy="263.1" r="10.8"/>
	<path class="st3" d="M622.3,271.9l-27.1,9.8l-7.1-19.5c-2.7-7.5,1.2-15.7,8.6-18.4l0,0c7.5-2.8,15.7,1.2,18.4,8.6L622.3,271.9z"/>
	<path class="st20" d="M567,218.8c-0.6,3.1,1,6.3,4,7.5c4.4,1.8,10.6,5.4,15.3,12.4c4.8,7.1,8.4,16.8,10.3,23.3
		c1.2,4,5.7,5.9,9.3,4.1c3.1-1.5,4.6-4.9,3.5-8.1c-2.8-8.6-8.5-25-14-32.7c-4.5-6.2-13-10.3-19.2-12.8c-4-1.5-8.4,0.9-9,5L567,218.8
		L567,218.8z"/>
	<path class="st2" d="M601.8,261.3c-2.1-6.6-5.5-16.4-10.3-23.3c-4.8-7-11-10.6-15.3-12.4c-3-1.2-4.6-4.4-4-7.5l0.3-1.3
		c0.3-1.9,1.5-3.5,3.2-4.6c-3.7-0.9-7.6,1.4-8.4,5.3l-0.3,1.3c-0.6,3.1,1,6.3,4,7.5c4.4,1.8,10.6,5.4,15.3,12.4
		c4.8,7.1,8.4,16.8,10.3,23.3c1.2,4,5.7,5.9,9.3,4.1c0.3-0.1,0.3-0.3,0.5-0.3C604.3,265.3,602.5,263.7,601.8,261.3L601.8,261.3z"/>
	<path class="st3" d="M567,218.8c-0.6,3.1,1,6.3,4,7.5c4.4,1.8,10.6,5.4,15.3,12.4c4.8,7.1,8.4,16.8,10.3,23.3
		c1.2,4,5.7,5.9,9.3,4.1l0,0c3.1-1.5,4.6-4.9,3.5-8.1c-2.8-8.6-8.5-25-14-32.7c-4.5-6.2-13-10.3-19.2-12.8c-4-1.5-8.4,0.9-9,5
		L567,218.8L567,218.8z"/>
	<path class="st3" d="M605.7,217.9l-1.5,11l-16.5-2.2l1.5-11L605.7,217.9z"/>
	<path class="st21" d="M605.8,218l-1.5,11l-16.5-2.4l1.5-11L605.8,218z"/>
	<path class="st4" d="M590.7,223.6c0-8.4-6.8-15.3-15.3-15.3c-1.9,0-3.6,0.3-5.3,0.9l-20.4,5.8l8.5,30.5l20-7.1
		C585.3,237.2,590.7,231.1,590.7,223.6L590.7,223.6z"/>
	<path class="st11" d="M559.5,218.9l20.4-5.8c1.7-0.6,3.5-0.9,5.3-0.9c0.3,0,0.3,0,0.5,0c-2.8-2.4-6.3-4-10.2-4
		c-1.9,0-3.6,0.3-5.3,0.9l-20.4,5.8l8.5,30.7l7.9-2.8L559.5,218.9L559.5,218.9z"/>
	<path class="st3" d="M590.7,223.6c0-8.4-6.8-15.3-15.3-15.3c-1.9,0-3.6,0.3-5.3,0.9l-20.4,5.8l8.5,30.5l20-7.1
		C585.3,237.2,590.7,231.1,590.7,223.6L590.7,223.6z"/>
	
		<ellipse transform="matrix(0.7071 -0.7071 0.7071 0.7071 -3.1396 456.3105)" class="st4" cx="549.2" cy="231.9" rx="18.9" ry="18.9"/>
	
		<ellipse transform="matrix(0.7071 -0.7071 0.7071 0.7071 -3.1396 456.3105)" class="st22" cx="549.2" cy="231.9" rx="18.9" ry="18.9"/>
	
		<ellipse transform="matrix(0.2092 -0.9779 0.9779 0.2092 269.8965 759.2262)" class="st23" cx="604.4" cy="212.7" rx="1.9" ry="3.4"/>
	<path class="st3" d="M602.7,218.2l1.5-4.5"/>
	<path class="st24" d="M595.1,218.2l7.1,1.2"/>
	<path class="st25" d="M274.8,666.2l9.5,1.8 M288,668.6l4.8,0.9"/>
	<text transform="matrix(0.7195 0 0 1 205.9508 496.0918)" class="st1 st26 st27">RunRentals</text>
</g>
</svg>
